<svg width="34" height="21" viewBox="0 0 34 21" fill="none" xmlns="http://www.w3.org/2000/svg">
<path d="M12.4028 2.24609H21.5956V18.7539H12.4028V2.24609Z" fill="#FF5F00"/>
<path d="M12.9866 10.4993C12.9866 7.14535 14.5633 4.17084 16.9858 2.2454C15.2051 0.84521 12.9583 0 10.506 0C4.69767 0 0 4.69608 0 10.4993C0 16.3039 4.69908 21 10.506 21C12.9568 21 15.2051 20.1534 16.9858 18.7532C14.5633 16.8575 12.9866 13.8546 12.9866 10.4993Z" fill="#EB001B"/>
<path d="M34 10.4993C34 16.3039 29.3009 21 23.494 21C21.0432 21 18.7949 20.1534 17.0142 18.7532C19.465 16.8277 21.0134 13.8546 21.0134 10.4993C21.0134 7.14535 19.4367 4.17084 17.0142 2.2454C18.7949 0.84521 21.0417 0 23.494 0C29.3023 0 34 4.7244 34 10.4993Z" fill="#F79E1B"/>
</svg>
