<svg width="60" height="16" viewBox="0 0 60 16" fill="none" xmlns="http://www.w3.org/2000/svg">
<path d="M5.55 0.00275631C6.0825 0.000312494 7.675 -0.141429 8.35 2.08489C8.8075 3.5854 9.53 6.04388 10.525 9.45545H10.93C11.995 5.8557 12.7275 3.39967 13.125 2.08489C13.8075 -0.163424 15.5125 0.00275631 16.1925 0.00275631H21.4525V16H16.0925V6.57174H15.7325L12.7425 16H8.71L5.72 6.56686H5.3625V16H0V0.000312494H5.55V0.00275631ZM29.1525 0.00275631V9.4359H29.58L33.215 1.67922C33.9225 0.134722 35.425 0.00275631 35.425 0.00275631H40.615V16H35.14V6.56686H34.715L31.145 14.3211C30.44 15.8558 28.865 15.9976 28.865 15.9976H23.68V0.000312494H29.1525V0.00275631ZM59.5325 7.60304C58.77 9.71938 56.3725 11.2346 53.7175 11.2346H47.975V16H42.77V7.60548H59.53L59.5325 7.60304Z" fill="#0F754E"/>
<path d="M53.9675 0.00244382H42.5C42.7725 3.56309 45.91 6.61298 49.1575 6.61298H59.895C60.515 3.65351 58.3825 0 53.97 0L53.9675 0.00244382Z" fill="url(#paint0_linear_13403_474592)"/>
<defs>
<linearGradient id="paint0_linear_13403_474592" x1="60.0004" y1="4.15983" x2="42.5" y2="4.15983" gradientUnits="userSpaceOnUse">
<stop stop-color="#1F5CD7"/>
<stop offset="1" stop-color="#02AEFF"/>
</linearGradient>
</defs>
</svg>
